<svg width="903" height="843" viewBox="0 0 903 843" fill="none" xmlns="http://www.w3.org/2000/svg">
<path fill-rule="evenodd" clip-rule="evenodd" d="M514.5 0.299975C512.712 0.395475 506.525 0.712516 500.75 1.00402C482.948 1.90252 467.593 3.272 449.75 5.5515C438.796 6.951 414.175 10.908 407 12.422C405.763 12.683 401.938 13.468 398.5 14.1665C387.682 16.3645 371.934 20.2085 356.25 24.48C344.802 27.598 321.883 35.001 309.963 39.4305C301.809 42.4605 282.511 50.1515 279.75 51.4715C278.65 51.997 275.838 53.256 273.5 54.2685C266.904 57.126 264.638 58.1945 251.25 64.7615C238.416 71.0565 231.99 74.4515 222.25 80.0844C220.6 81.0389 218.688 82.1375 218 82.526C199.628 92.914 174.236 110.214 155 125.45C141.638 136.033 132.433 144.207 118.346 158C84.3205 191.314 57.744 227.133 38.214 266C34.1445 274.099 30 282.8 30 283.245C30 283.369 29.4575 284.658 28.795 286.11C22.162 300.639 12.4095 330.12 9.23152 345.25C4.38602 368.317 3.01001 377.439 1.23701 398.25C-0.573991 419.506 1.057 454.132 4.8285 474.5C5.2615 476.837 5.72003 479.425 5.84803 480.25C6.16953 482.328 7.51999 489.382 8.00099 491.5C8.21999 492.462 8.66951 494.487 9.00001 496C12.236 510.811 18.3395 530.463 24.606 546.25C26.2435 550.375 27.887 554.425 28.2585 555.25C28.63 556.075 30.1005 559.337 31.526 562.5C42.9225 587.78 58.4865 613.776 75.5 635.95C78.1125 639.354 80.6865 642.727 81.22 643.445C89.473 654.55 113.529 680.415 128.5 694.279C146.099 710.577 169.787 729.049 191.25 743.21C201.564 750.015 203.035 750.945 211.25 755.856C235.519 770.364 258.362 781.869 286 793.505C287.237 794.026 289.857 795.136 291.821 795.971C298.654 798.875 314.328 804.606 326.75 808.741C338.642 812.699 341.83 813.701 352.25 816.753C354.725 817.478 357.425 818.276 358.25 818.525C361.131 819.397 377.802 823.595 384.25 825.073C411.64 831.35 438.027 835.746 467.885 839.006C472.648 839.526 486.202 840.554 502.5 841.632C514.665 842.436 559.906 842.439 572 841.635C590.166 840.429 601.88 839.466 610.5 838.473C615.312 837.918 621.162 837.251 623.5 836.99C627.824 836.509 640.498 834.636 650 833.075L655.25 832.212L655.375 421.201L655.5 10.19L650.125 9.33147C638.87 7.53347 629.077 6.084 624.5 5.5385C603.336 3.015 595.352 2.28446 574.5 0.964465C566.463 0.455465 520.993 -0.0480247 514.5 0.299975ZM572.854 53.792C579.547 54.2275 590.024 55.0715 596.137 55.667L607.25 56.75L607.376 179.625L607.502 302.5H535.251H463V326.75V351H535.25H607.5V568.24V785.481L606.375 785.712C605.303 785.932 603.303 786.121 584.75 787.755C558.416 790.074 515.444 790.065 489 787.735C476.443 786.628 465.609 785.545 462 785.035C440.706 782.024 431.088 780.479 422.831 778.741C420.861 778.327 416.443 777.417 413.014 776.718C409.584 776.02 406.606 775.179 406.396 774.849C405.907 774.079 405.894 68.435 406.383 67.6925C406.754 67.1295 411.7 65.749 415.948 65.023C417.214 64.807 420.5 64.161 423.25 63.588C430.105 62.159 444.451 59.741 452 58.742C455.438 58.287 459.712 57.7105 461.5 57.461C467.655 56.6025 489.267 54.5685 498 54.026C502.812 53.727 507.65 53.4115 508.75 53.325C509.85 53.239 521.986 53.1305 535.718 53.084C553.864 53.023 564.011 53.2165 572.854 53.792ZM526 82V88H557.75H589.5V82V76H557.75H526V82ZM357.878 420.791C357.948 607.768 357.903 761.022 357.776 761.355C357.551 761.95 344.443 757.67 333 753.263C330.388 752.257 327.125 751.017 325.75 750.507C323.421 749.643 318.679 747.685 310.25 744.105C289.862 735.448 265.701 722.852 245.606 710.404C191.957 677.172 146.673 633.744 116.93 587C110.681 577.179 109.008 574.387 105.224 567.466C88.2335 536.392 77.4365 506.497 71.5565 474.25C68.954 459.978 67.677 448.53 66.95 432.954C66.172 416.277 67.5285 391.312 69.991 377C71.685 367.157 73.8295 356.03 74.2435 354.939C74.3875 354.56 74.827 352.787 75.22 351C75.947 347.695 78.4215 338.561 79.4305 335.458C85.247 317.572 88.199 309.886 94.779 295.5C106.897 269.004 125.379 240.321 145.161 217.309C179.486 177.378 222.209 143.424 271.115 117.208C277.362 113.859 295.707 104.701 299.5 103.039C301.013 102.375 303.938 101.07 306 100.137C309.359 98.6185 320.694 93.9375 328.75 90.7425C331.628 89.6015 337.891 87.2935 344.25 85.031C354.222 81.4835 356.803 80.629 357.25 80.7255C357.583 80.797 357.793 194.661 357.878 420.791ZM526 103.5V109.5H557.75H589.5V103.5V97.5H557.75H526V103.5ZM282 162.503V168.007L313.844 167.878L345.689 167.75L345.719 162.376L345.75 157.002L313.875 157.001L282 157V162.503ZM574.571 174.471C573.098 175.017 571.156 176.024 570.257 176.71C566.336 179.701 564.095 185.49 564.683 191.111C565.933 203.078 578.321 208.739 587.38 201.484C593.206 196.819 594.664 186.812 590.42 180.627C588.42 177.713 587.431 176.833 584.336 175.209C581.018 173.469 577.91 173.234 574.571 174.471ZM282.109 183.875L282.25 189.75L313.875 189.878C338.997 189.981 345.507 189.878 345.531 189.378C345.548 189.033 345.604 186.331 345.656 183.375L345.75 178.001L313.859 178L281.969 178L282.109 183.875ZM671.229 303.125C671.098 303.469 671.048 314.325 671.12 327.25L671.25 350.75L763 351L854.75 351.25L854.875 569.125L855.001 787H879H903L902.992 547.875L902.984 308.75L901.859 306.765C901.241 305.673 899.973 304.266 899.043 303.64L897.352 302.5H784.411C694.518 302.5 671.42 302.627 671.229 303.125ZM310.57 383.046C306.623 384.246 302.722 387.765 300.922 391.75C299.176 395.613 299.288 401.343 301.179 405C304.028 410.509 308.524 413.5 313.956 413.5C324.377 413.5 331.289 401.79 326.792 391.75C325.176 388.143 323.058 385.823 319.908 384.213C317.207 382.833 313.001 382.307 310.57 383.046ZM532 388.5V394.5H563.75H595.5V388.5V382.5H563.75H532V388.5ZM778.5 388.5V394.5H810.25H842V388.5V382.5H810.25H778.5V388.5ZM532 409.75V415.5H563.75H595.5V409.75V404H563.75H532V409.75ZM778.5 409.75V415.5H810.25H842V409.75V404H810.25H778.5V409.75ZM819.896 539.963C814.956 541.206 812.446 543.423 809.942 548.75C807.397 554.165 808.918 561.966 813.314 566.047C816.949 569.422 818.832 570.236 823 570.236C827.175 570.236 829.108 569.398 832.642 566.053C837.258 561.686 838.611 554.134 835.834 548.25C833.463 543.229 831.075 541.203 825.946 539.864C823.465 539.216 822.821 539.227 819.896 539.963ZM575 541.052C572.543 541.785 568.888 544.392 567.384 546.485C564.671 550.259 563.838 556.067 565.298 561.034C569.045 573.783 585.463 575.089 591.347 563.107C592.553 560.652 592.749 559.651 592.745 556C592.74 552.517 592.519 551.301 591.521 549.263C590.073 546.308 586.962 543.066 584.417 541.861C582.128 540.777 577.312 540.363 575 541.052Z" fill="white"/>
</svg>
